<?xml version="1.0" encoding="utf-8"?>
<!-- Generator: Adobe Illustrator 22.1.0, SVG Export Plug-In . SVG Version: 6.00 Build 0)  -->
<svg version="1.1" id="Layer_1" xmlns="http://www.w3.org/2000/svg" xmlns:xlink="http://www.w3.org/1999/xlink" x="0px" y="0px"
	 viewBox="0 0 1920 1920" style="enable-background:new 0 0 1920 1920;" xml:space="preserve">
<style type="text/css">
	.st0{fill:#231F20;}
	.st1{fill:#EB2227;}
	.st2{fill:#2E3588;}
</style>
<g>
	<g>
		<path class="st0" d="M103.9,1177.9H125v6.5H95.8v-46.7h8.1V1177.9z"/>
		<path class="st0" d="M158.5,1163.5h-19.2v14.4h22.4v6.5h-30.5v-46.7h30.3v6.6h-22.2v12.9h19.2V1163.5z"/>
		<path class="st0" d="M178.9,1137.7l13.5,35.8l13.4-35.8h10.5v46.7h-8.1v-15.4l0.8-20.6l-13.8,36h-5.8l-13.7-35.9l0.8,20.5v15.4
			h-8.1v-46.7H178.9z"/>
		<path class="st0" d="M225.9,1184.3v-46.7h16c2.5,0,4.8,0.2,6.8,0.8c2,0.5,3.7,1.3,5.1,2.3c1.4,1,2.4,2.4,3.2,3.9
			c0.7,1.6,1.1,3.5,1.1,5.7c0,2.1-0.6,4.1-1.7,5.8c-1.1,1.7-2.8,3-5.1,4c1.3,0.4,2.5,0.9,3.5,1.6c1,0.7,1.8,1.5,2.5,2.5
			c0.6,0.9,1.1,2,1.5,3.1c0.3,1.1,0.5,2.3,0.5,3.5c0,2.3-0.4,4.2-1.1,5.9c-0.7,1.7-1.8,3.1-3.2,4.3c-1.4,1.1-3.1,2-5.1,2.6
			c-2,0.6-4.3,0.9-6.8,0.9H225.9z M234,1157.3h7.9c2.5,0,4.5-0.6,5.9-1.7c1.4-1.1,2.1-2.7,2.1-4.8c0-2.3-0.7-4-2-5
			c-1.3-1-3.4-1.5-6.1-1.5H234V1157.3z M234,1163.3v14.6h9c1.3,0,2.5-0.2,3.5-0.5c1-0.3,1.9-0.8,2.5-1.5c0.7-0.6,1.2-1.4,1.5-2.3
			c0.3-0.9,0.5-1.8,0.5-2.9c0-2.3-0.6-4.1-1.8-5.4c-1.2-1.3-3.2-2-5.9-2H234z"/>
		<path class="st0" d="M293.4,1173.5h-18.1l-3.8,10.9h-8.4l17.6-46.7h7.3l17.7,46.7h-8.5L293.4,1173.5z M277.6,1166.9h13.5
			l-6.8-19.4L277.6,1166.9z"/>
		<path class="st0" d="M346.1,1178.3c-0.5,0.7-1.2,1.4-2.1,2.1c-0.9,0.8-2,1.5-3.4,2.2c-1.4,0.7-3,1.2-5,1.7
			c-1.9,0.5-4.2,0.7-6.8,0.7c-2.9,0-5.6-0.5-8.1-1.5c-2.4-1-4.5-2.4-6.3-4.4s-3.1-4.2-4.1-7c-1-2.8-1.5-6-1.5-9.5v-3.1
			c0-3.6,0.4-6.7,1.3-9.5c0.9-2.8,2.1-5.1,3.8-7.1c1.6-1.9,3.7-3.4,6-4.4c2.4-1,5.1-1.5,8.1-1.5c2.8,0,5.3,0.4,7.4,1.1
			c2.1,0.7,3.9,1.8,5.3,3.1c1.5,1.3,2.6,2.9,3.4,4.7c0.8,1.8,1.4,3.8,1.7,6h-7.9c-0.2-1.2-0.5-2.3-1-3.3c-0.4-1-1.1-1.9-1.8-2.7
			c-0.8-0.8-1.7-1.3-2.9-1.8c-1.1-0.4-2.5-0.6-4.1-0.6c-1.9,0-3.5,0.3-4.9,1c-1.4,0.7-2.6,1.8-3.5,3.1c-0.9,1.4-1.6,3-2.1,5
			c-0.5,2-0.7,4.2-0.7,6.8v3.1c0,2.6,0.3,4.9,0.8,6.8c0.6,2,1.3,3.6,2.4,5c1,1.4,2.3,2.4,3.8,3.1c1.5,0.7,3.2,1.1,5,1.1
			c1.4,0,2.6-0.1,3.6-0.3c1-0.2,1.8-0.4,2.5-0.7c0.7-0.3,1.3-0.6,1.7-0.9c0.4-0.3,0.8-0.6,1.1-0.9v-9.2h-9.6v-6.1h17.7V1178.3z"/>
		<path class="st0" d="M381.1,1173.5H363l-3.8,10.9h-8.4l17.6-46.7h7.3l17.7,46.7h-8.5L381.1,1173.5z M365.3,1166.9h13.5l-6.8-19.4
			L365.3,1166.9z"/>
		<path class="st0" d="M423.1,1167v17.3H415v-46.7h17.9c2.7,0,5.1,0.4,7.2,1.1c2.1,0.7,3.9,1.7,5.3,3.1c1.5,1.3,2.6,2.9,3.3,4.7
			c0.8,1.8,1.1,3.8,1.1,5.9c0,2.3-0.4,4.3-1.1,6.1c-0.8,1.8-1.9,3.3-3.3,4.5c-1.5,1.3-3.2,2.2-5.3,2.9s-4.5,1-7.2,1H423.1z
			 M423.1,1160.5h9.7c1.6,0,2.9-0.2,4-0.5c1.1-0.4,2-1,2.8-1.7c0.7-0.7,1.3-1.5,1.6-2.5c0.3-1,0.5-2,0.5-3.2c0-1.1-0.2-2.1-0.5-3.1
			c-0.3-1-0.9-1.9-1.6-2.7c-0.7-0.8-1.6-1.4-2.8-1.9c-1.1-0.4-2.5-0.7-4-0.7h-9.7V1160.5z"/>
		<path class="st0" d="M484.3,1163.5h-19.2v14.4h22.4v6.5H457v-46.7h30.3v6.6h-22.2v12.9h19.2V1163.5z"/>
		<path class="st0" d="M531.1,1184.3H523l-20.8-33.1v33.1h-8.1v-46.7h8.1l20.9,33.2v-33.2h8V1184.3z"/>
		<path class="st0" d="M576.5,1178.3c-0.5,0.7-1.2,1.4-2.1,2.1c-0.9,0.8-2,1.5-3.4,2.2c-1.4,0.7-3,1.2-5,1.7
			c-1.9,0.5-4.2,0.7-6.8,0.7c-2.9,0-5.6-0.5-8.1-1.5c-2.4-1-4.5-2.4-6.3-4.4c-1.8-1.9-3.1-4.2-4.1-7c-1-2.8-1.5-6-1.5-9.5v-3.1
			c0-3.6,0.4-6.7,1.3-9.5c0.9-2.8,2.1-5.1,3.8-7.1c1.6-1.9,3.7-3.4,6-4.4c2.4-1,5.1-1.5,8.1-1.5c2.8,0,5.3,0.4,7.4,1.1
			c2.1,0.7,3.9,1.8,5.4,3.1c1.5,1.3,2.6,2.9,3.4,4.7c0.8,1.8,1.4,3.8,1.7,6h-7.9c-0.2-1.2-0.5-2.3-1-3.3c-0.4-1-1.1-1.9-1.8-2.7
			c-0.8-0.8-1.8-1.3-2.9-1.8c-1.1-0.4-2.5-0.6-4.1-0.6c-1.9,0-3.6,0.3-5,1c-1.4,0.7-2.6,1.8-3.5,3.1c-0.9,1.4-1.6,3-2.1,5
			c-0.5,2-0.7,4.2-0.7,6.8v3.1c0,2.6,0.3,4.9,0.8,6.8c0.6,2,1.3,3.6,2.4,5c1,1.4,2.3,2.4,3.8,3.1c1.5,0.7,3.2,1.1,5.1,1.1
			c1.4,0,2.6-0.1,3.6-0.3c1-0.2,1.8-0.4,2.5-0.7c0.7-0.3,1.3-0.6,1.7-0.9c0.4-0.3,0.8-0.6,1.1-0.9v-9.2h-9.6v-6.1h17.7V1178.3z"/>
		<path class="st0" d="M612.7,1163.5h-19.2v14.4h22.4v6.5h-30.5v-46.7h30.3v6.6h-22.2v12.9h19.2V1163.5z"/>
		<path class="st0" d="M633,1137.7l13.5,35.8l13.4-35.8h10.5v46.7h-8.1v-15.4l0.8-20.6l-13.8,36h-5.8l-13.7-35.9l0.8,20.5v15.4h-8.1
			v-46.7H633z"/>
		<path class="st0" d="M680,1184.3v-46.7h16c2.5,0,4.8,0.2,6.8,0.8c2,0.5,3.7,1.3,5.1,2.3c1.4,1,2.5,2.4,3.2,3.9
			c0.7,1.6,1.1,3.5,1.1,5.7c0,2.1-0.6,4.1-1.7,5.8c-1.2,1.7-2.8,3-5.1,4c1.3,0.4,2.5,0.9,3.5,1.6c1,0.7,1.8,1.5,2.5,2.5
			c0.7,0.9,1.1,2,1.5,3.1c0.3,1.1,0.5,2.3,0.5,3.5c0,2.3-0.4,4.2-1.1,5.9c-0.7,1.7-1.8,3.1-3.2,4.3c-1.4,1.1-3.1,2-5.1,2.6
			c-2,0.6-4.3,0.9-6.8,0.9H680z M688.1,1157.3h7.9c2.5,0,4.5-0.6,5.9-1.7c1.4-1.1,2.1-2.7,2.1-4.8c0-2.3-0.7-4-2-5
			c-1.3-1-3.4-1.5-6.1-1.5h-7.9V1157.3z M688.1,1163.3v14.6h9c1.3,0,2.5-0.2,3.5-0.5c1-0.3,1.9-0.8,2.6-1.5c0.7-0.6,1.2-1.4,1.5-2.3
			c0.3-0.9,0.5-1.8,0.5-2.9c0-2.3-0.6-4.1-1.8-5.4c-1.2-1.3-3.2-2-5.9-2H688.1z"/>
		<path class="st0" d="M747.5,1173.5h-18.1l-3.8,10.9h-8.4l17.6-46.7h7.3l17.7,46.7h-8.5L747.5,1173.5z M731.7,1166.9h13.5
			l-6.8-19.4L731.7,1166.9z"/>
		<path class="st0" d="M802.1,1184.3H794l-20.8-33.1v33.1h-8.1v-46.7h8.1l20.9,33.2v-33.2h8V1184.3z"/>
		<path class="st0" d="M847.5,1178.3c-0.5,0.7-1.2,1.4-2.1,2.1c-0.9,0.8-2,1.5-3.4,2.2c-1.4,0.7-3,1.2-5,1.7
			c-1.9,0.5-4.2,0.7-6.8,0.7c-2.9,0-5.6-0.5-8.1-1.5c-2.5-1-4.6-2.4-6.3-4.4c-1.8-1.9-3.1-4.2-4.1-7c-1-2.8-1.5-6-1.5-9.5v-3.1
			c0-3.6,0.4-6.7,1.3-9.5c0.9-2.8,2.1-5.1,3.8-7.1c1.6-1.9,3.7-3.4,6-4.4c2.4-1,5.1-1.5,8.1-1.5c2.8,0,5.3,0.4,7.4,1.1
			c2.1,0.7,3.9,1.8,5.3,3.1c1.5,1.3,2.6,2.9,3.4,4.7c0.8,1.8,1.4,3.8,1.7,6h-7.9c-0.2-1.2-0.5-2.3-1-3.3c-0.4-1-1.1-1.9-1.8-2.7
			c-0.8-0.8-1.7-1.3-2.9-1.8c-1.1-0.4-2.5-0.6-4.1-0.6c-1.9,0-3.5,0.3-4.9,1c-1.4,0.7-2.6,1.8-3.5,3.1c-0.9,1.4-1.6,3-2.1,5
			c-0.5,2-0.7,4.2-0.7,6.8v3.1c0,2.6,0.3,4.9,0.8,6.8c0.6,2,1.4,3.6,2.4,5c1,1.4,2.3,2.4,3.8,3.1c1.5,0.7,3.2,1.1,5,1.1
			c1.4,0,2.6-0.1,3.6-0.3c1-0.2,1.8-0.4,2.5-0.7c0.7-0.3,1.2-0.6,1.7-0.9c0.4-0.3,0.8-0.6,1.1-0.9v-9.2h-9.6v-6.1h17.7V1178.3z"/>
		<path class="st0" d="M882.5,1173.5h-18.1l-3.8,10.9h-8.4l17.6-46.7h7.3l17.7,46.7h-8.5L882.5,1173.5z M866.7,1166.9h13.5
			l-6.8-19.4L866.7,1166.9z"/>
		<path class="st0" d="M937.1,1184.3H929l-20.8-33.1v33.1H900v-46.7h8.1l20.9,33.2v-33.2h8.1V1184.3z"/>
		<path class="st0" d="M963,1184.3v-46.7h13.8c3.1,0,6,0.5,8.5,1.6c2.6,1,4.8,2.5,6.6,4.5c1.8,1.9,3.3,4.2,4.3,7
			c1,2.7,1.5,5.8,1.5,9.2v2.3c0,3.4-0.5,6.4-1.5,9.2c-1,2.7-2.4,5-4.3,7c-1.9,1.9-4.1,3.4-6.7,4.4c-2.6,1-5.6,1.6-8.8,1.6H963z
			 M971.1,1144.2v33.6h5.3c2.2,0,4.2-0.4,5.8-1.1c1.7-0.7,3-1.7,4.1-3.1c1.1-1.3,1.9-3,2.5-4.9c0.5-1.9,0.8-4.1,0.8-6.6v-2.4
			c0-5.1-1.1-8.9-3.3-11.6c-2.2-2.7-5.4-4-9.6-4H971.1z"/>
		<path class="st0" d="M1031.4,1173.5h-18.1l-3.8,10.9h-8.5l17.6-46.7h7.3l17.7,46.7h-8.5L1031.4,1173.5z M1015.5,1166.9h13.5
			l-6.8-19.4L1015.5,1166.9z"/>
		<path class="st0" d="M1085.9,1184.3h-8.1l-20.8-33.1v33.1h-8.1v-46.7h8.1l20.8,33.2v-33.2h8.1V1184.3z"/>
		<path class="st0" d="M1125.3,1164.2l-5.3,5.6v14.6h-8.1v-46.7h8.1v21.9l4.5-5.5l13.7-16.4h9.8l-17.3,20.7l18.3,26h-9.6
			L1125.3,1164.2z"/>
		<path class="st0" d="M1189.5,1162.2c0,3.6-0.5,6.7-1.4,9.5c-0.9,2.8-2.2,5.2-3.9,7.2c-1.7,1.9-3.7,3.5-6.1,4.5
			c-2.4,1.1-5,1.6-7.9,1.6c-2.9,0-5.5-0.5-7.8-1.6c-2.4-1-4.4-2.5-6.1-4.5c-1.7-1.9-3.1-4.3-4-7.2c-0.9-2.8-1.4-6-1.4-9.5v-2.4
			c0-3.5,0.5-6.7,1.4-9.6c1-2.8,2.3-5.2,4-7.2c1.7-2,3.7-3.5,6.1-4.5c2.4-1.1,5-1.6,7.8-1.6c2.9,0,5.5,0.5,7.9,1.6
			c2.4,1,4.4,2.6,6.1,4.5c1.7,2,3,4.4,3.9,7.2c0.9,2.8,1.4,6,1.4,9.6V1162.2z M1181.4,1159.8c0-2.6-0.3-4.9-0.7-6.9
			c-0.5-2-1.2-3.7-2.2-5c-1-1.3-2.1-2.3-3.5-3c-1.4-0.7-3-1.1-4.8-1.1c-1.7,0-3.3,0.4-4.7,1.1c-1.4,0.7-2.6,1.7-3.6,3
			c-1,1.4-1.7,3-2.2,5c-0.5,2-0.8,4.3-0.8,6.9v2.4c0,2.6,0.3,4.9,0.8,6.9c0.5,2,1.3,3.7,2.3,5c1,1.3,2.1,2.4,3.6,3.1
			c1.4,0.7,3,1.1,4.7,1.1c3.6,0,6.3-1.4,8.3-4.1c1.9-2.7,2.9-6.7,2.9-12V1159.8z"/>
		<path class="st0" d="M1234.6,1184.3h-8.1l-20.8-33.1v33.1h-8.1v-46.7h8.1l20.9,33.2v-33.2h8V1184.3z"/>
		<path class="st0" d="M1268.6,1172.3c0-1-0.2-1.8-0.4-2.5c-0.3-0.8-0.8-1.4-1.5-2c-0.7-0.6-1.7-1.2-3-1.8c-1.3-0.6-3-1.2-5-1.8
			c-2.2-0.7-4.3-1.4-6.1-2.3c-1.9-0.9-3.5-1.9-4.9-3c-1.3-1.1-2.4-2.4-3.2-3.9c-0.8-1.5-1.2-3.2-1.2-5.1s0.4-3.6,1.2-5.2
			c0.8-1.6,1.9-3,3.4-4.1c1.5-1.2,3.2-2.1,5.2-2.7s4.3-1,6.7-1c2.6,0,5,0.4,7.1,1.1c2.1,0.7,3.9,1.8,5.3,3.1
			c1.4,1.3,2.6,2.8,3.3,4.5c0.8,1.7,1.1,3.5,1.1,5.5h-8c0-1.1-0.2-2.2-0.5-3.1s-0.9-1.8-1.6-2.5c-0.7-0.7-1.6-1.3-2.8-1.6
			c-1.1-0.4-2.4-0.6-3.9-0.6c-1.4,0-2.7,0.2-3.7,0.5c-1.1,0.3-1.9,0.8-2.6,1.4c-0.7,0.6-1.2,1.3-1.5,2c-0.4,0.8-0.5,1.7-0.5,2.6
			c0,1.7,0.8,3.2,2.5,4.4c1.6,1.1,4.1,2.2,7.5,3.2c2.7,0.8,4.9,1.6,6.8,2.6c1.9,0.9,3.5,2,4.8,3.2c1.3,1.2,2.2,2.5,2.8,4
			c0.6,1.5,0.9,3.2,0.9,5c0,2-0.4,3.7-1.2,5.3c-0.8,1.6-1.9,2.9-3.3,4c-1.4,1.1-3.2,2-5.2,2.6c-2,0.6-4.3,0.9-6.9,0.9
			c-2.3,0-4.5-0.3-6.6-0.9c-2.2-0.6-4.1-1.5-5.9-2.7c-1.7-1.2-3.1-2.7-4.2-4.6c-1.1-1.8-1.6-4-1.6-6.5h8.1c0,1.5,0.3,2.7,0.8,3.8
			c0.5,1.1,1.2,1.9,2.1,2.6c0.9,0.7,2,1.2,3.2,1.5c1.2,0.3,2.6,0.5,4,0.5c2.8,0,4.9-0.6,6.4-1.7
			C1267.9,1175.7,1268.6,1174.2,1268.6,1172.3z"/>
		<path class="st0" d="M1318,1137.7v31.2c0,2.7-0.5,5-1.4,7c-0.9,2-2.2,3.7-3.8,5.1c-1.6,1.3-3.4,2.3-5.5,3c-2.1,0.7-4.4,1-6.8,1
			c-2.5,0-4.8-0.3-7-1c-2.1-0.7-4-1.7-5.5-3c-1.6-1.4-2.8-3-3.6-5.1c-0.9-2-1.3-4.3-1.3-7v-31.2h8.1v31.2c0,1.7,0.2,3.1,0.7,4.3
			c0.4,1.2,1,2.2,1.8,3c0.8,0.8,1.8,1.4,3,1.8c1.1,0.4,2.4,0.6,3.9,0.6c1.4,0,2.7-0.2,3.9-0.6c1.2-0.4,2.1-0.9,3-1.8
			c0.8-0.8,1.4-1.8,1.8-3c0.4-1.2,0.7-2.7,0.7-4.3v-31.2H1318z"/>
		<path class="st0" d="M1334.7,1177.9h21.2v6.5h-29.3v-46.7h8.1V1177.9z"/>
		<path class="st0" d="M1389.3,1144.2h-14.5v40.1h-8v-40.1h-14.4v-6.6h37V1144.2z"/>
		<path class="st0" d="M1417.7,1173.5h-18.1l-3.8,10.9h-8.4l17.7-46.7h7.3l17.7,46.7h-8.5L1417.7,1173.5z M1401.9,1166.9h13.5
			l-6.8-19.4L1401.9,1166.9z"/>
		<path class="st0" d="M1459.6,1172.3c0-1-0.1-1.8-0.4-2.5c-0.3-0.8-0.8-1.4-1.5-2c-0.7-0.6-1.7-1.2-3-1.8c-1.3-0.6-2.9-1.2-5-1.8
			c-2.2-0.7-4.3-1.4-6.2-2.3c-1.9-0.9-3.5-1.9-4.9-3c-1.3-1.1-2.4-2.4-3.2-3.9c-0.8-1.5-1.1-3.2-1.1-5.1s0.4-3.6,1.2-5.2
			c0.8-1.6,1.9-3,3.4-4.1c1.4-1.2,3.2-2.1,5.2-2.7c2-0.6,4.3-1,6.7-1c2.6,0,5,0.4,7.1,1.1c2.1,0.7,3.9,1.8,5.3,3.1
			c1.5,1.3,2.5,2.8,3.3,4.5c0.8,1.7,1.2,3.5,1.2,5.5h-8.1c0-1.1-0.2-2.2-0.5-3.1c-0.4-0.9-0.9-1.8-1.6-2.5c-0.7-0.7-1.7-1.3-2.8-1.6
			c-1.1-0.4-2.4-0.6-3.9-0.6c-1.4,0-2.7,0.2-3.7,0.5c-1.1,0.3-1.9,0.8-2.6,1.4c-0.7,0.6-1.2,1.3-1.5,2c-0.3,0.8-0.5,1.7-0.5,2.6
			c0,1.7,0.8,3.2,2.4,4.4c1.6,1.1,4.1,2.2,7.5,3.2c2.6,0.8,4.9,1.6,6.8,2.6c1.9,0.9,3.5,2,4.8,3.2c1.2,1.2,2.2,2.5,2.8,4
			c0.6,1.5,0.9,3.2,0.9,5c0,2-0.4,3.7-1.2,5.3c-0.8,1.6-1.9,2.9-3.3,4c-1.4,1.1-3.2,2-5.2,2.6c-2,0.6-4.3,0.9-6.9,0.9
			c-2.2,0-4.5-0.3-6.6-0.9c-2.2-0.6-4.2-1.5-5.9-2.7c-1.7-1.2-3.1-2.7-4.2-4.6c-1.1-1.8-1.6-4-1.6-6.5h8.1c0,1.5,0.3,2.7,0.8,3.8
			c0.5,1.1,1.2,1.9,2.1,2.6c0.9,0.7,2,1.2,3.2,1.5c1.2,0.3,2.6,0.5,4,0.5c2.8,0,4.9-0.6,6.4-1.7
			C1458.9,1175.7,1459.6,1174.2,1459.6,1172.3z"/>
		<path class="st0" d="M1483.4,1184.3h-8.1v-46.7h8.1V1184.3z"/>
		<path class="st0" d="M1546.8,1184.3h-8.1l-20.8-33.1v33.1h-8.1v-46.7h8.1l20.9,33.2v-33.2h8.1V1184.3z"/>
		<path class="st0" d="M1583,1173.5H1565l-3.8,10.9h-8.4l17.6-46.7h7.3l17.6,46.7h-8.5L1583,1173.5z M1567.2,1166.9h13.5l-6.8-19.4
			L1567.2,1166.9z"/>
		<path class="st0" d="M1625,1172.3c0-1-0.1-1.8-0.4-2.5c-0.3-0.8-0.8-1.4-1.5-2c-0.7-0.6-1.7-1.2-3-1.8c-1.3-0.6-2.9-1.2-5-1.8
			c-2.2-0.7-4.3-1.4-6.2-2.3c-1.9-0.9-3.5-1.9-4.8-3c-1.3-1.1-2.4-2.4-3.2-3.9c-0.8-1.5-1.1-3.2-1.1-5.1s0.4-3.6,1.2-5.2
			c0.8-1.6,1.9-3,3.4-4.1c1.4-1.2,3.2-2.1,5.2-2.7c2-0.6,4.3-1,6.7-1c2.6,0,5,0.4,7.1,1.1c2.1,0.7,3.9,1.8,5.3,3.1
			c1.5,1.3,2.5,2.8,3.3,4.5c0.8,1.7,1.2,3.5,1.2,5.5h-8.1c0-1.1-0.2-2.2-0.5-3.1c-0.4-0.9-0.9-1.8-1.6-2.5c-0.7-0.7-1.7-1.3-2.8-1.6
			c-1.1-0.4-2.4-0.6-4-0.6c-1.4,0-2.7,0.2-3.7,0.5c-1.1,0.3-1.9,0.8-2.6,1.4c-0.7,0.6-1.2,1.3-1.6,2c-0.3,0.8-0.5,1.7-0.5,2.6
			c0,1.7,0.8,3.2,2.4,4.4c1.6,1.1,4.1,2.2,7.5,3.2c2.6,0.8,4.9,1.6,6.8,2.6c2,0.9,3.5,2,4.8,3.2c1.3,1.2,2.2,2.5,2.8,4
			c0.6,1.5,0.9,3.2,0.9,5c0,2-0.4,3.7-1.2,5.3c-0.8,1.6-1.9,2.9-3.3,4c-1.4,1.1-3.2,2-5.2,2.6c-2.1,0.6-4.3,0.9-6.9,0.9
			c-2.2,0-4.5-0.3-6.6-0.9c-2.2-0.6-4.2-1.5-5.9-2.7c-1.7-1.2-3.1-2.7-4.2-4.6c-1.1-1.8-1.6-4-1.6-6.5h8.1c0,1.5,0.3,2.7,0.8,3.8
			c0.5,1.1,1.2,1.9,2.2,2.6c0.9,0.7,2,1.2,3.2,1.5c1.3,0.3,2.6,0.5,4,0.5c2.8,0,4.9-0.6,6.4-1.7
			C1624.3,1175.7,1625,1174.2,1625,1172.3z"/>
		<path class="st0" d="M1648.8,1184.3h-8.1v-46.7h8.1V1184.3z"/>
		<path class="st0" d="M1696,1162.2c0,3.6-0.5,6.7-1.4,9.5c-0.9,2.8-2.3,5.2-3.9,7.2c-1.7,1.9-3.7,3.5-6.1,4.5
			c-2.4,1.1-5,1.6-7.9,1.6c-2.9,0-5.5-0.5-7.9-1.6c-2.4-1-4.4-2.5-6.1-4.5c-1.7-1.9-3-4.3-4-7.2c-1-2.8-1.4-6-1.4-9.5v-2.4
			c0-3.5,0.5-6.7,1.4-9.6c1-2.8,2.3-5.2,4-7.2c1.7-2,3.7-3.5,6.1-4.5c2.4-1.1,5-1.6,7.9-1.6c2.9,0,5.5,0.5,7.9,1.6
			c2.4,1,4.4,2.6,6.1,4.5c1.7,2,3,4.4,3.9,7.2c0.9,2.8,1.4,6,1.4,9.6V1162.2z M1687.9,1159.8c0-2.6-0.2-4.9-0.8-6.9
			c-0.5-2-1.2-3.7-2.2-5c-1-1.3-2.1-2.3-3.5-3c-1.4-0.7-3-1.1-4.8-1.1c-1.7,0-3.3,0.4-4.7,1.1c-1.4,0.7-2.6,1.7-3.5,3
			c-1,1.4-1.7,3-2.3,5c-0.5,2-0.8,4.3-0.8,6.9v2.4c0,2.6,0.3,4.9,0.8,6.9c0.5,2,1.3,3.7,2.3,5c1,1.3,2.2,2.4,3.6,3.1
			c1.4,0.7,3,1.1,4.7,1.1c3.6,0,6.4-1.4,8.3-4.1c2-2.7,2.9-6.7,2.9-12V1159.8z"/>
		<path class="st0" d="M1741.1,1184.3h-8.1l-20.8-33.1v33.1h-8.1v-46.7h8.1l20.9,33.2v-33.2h8.1V1184.3z"/>
		<path class="st0" d="M1777.4,1173.5h-18.1l-3.8,10.9h-8.4l17.6-46.7h7.3l17.7,46.7h-8.5L1777.4,1173.5z M1761.6,1166.9h13.5
			l-6.8-19.4L1761.6,1166.9z"/>
		<path class="st0" d="M1803.1,1177.9h21.2v6.5H1795v-46.7h8.1V1177.9z"/>
	</g>
	<path class="st1" d="M819.1,1027.7c-71,36.1-180.8,59.4-304.2,59.4c-214.2,0-387.8-69.9-387.8-156.1c0-25,14.7-48.6,40.6-69.5
		c-1.4-0.8-2.6-1.4-3-1.7l-0.4-4.8c0,0-4-4.1-8.4-8.6c-0.9-0.9-1.4-1.8-2-2.7c-4.3,3-8.4,6-12.3,9.1c0.8,0.6,1.8,1.4,2.9,2.1
		c2.9,2,5.9,4,4.4,5.8c-2.6,3.2-6.4,0.2-6.4,0.2s-2.1-1.5-4.4-2.9c-0.6-0.3-1.1-0.7-1.7-1c-26.1,22.3-40.8,47.3-40.8,73.7
		c0,93,181.3,168.5,405,168.5c134.5,0,253.7-27.3,327.4-69.3c-0.9-0.1-2.1-0.3-3.5-0.6C822,1028.6,820.1,1028.3,819.1,1027.7z"/>
	<path class="st1" d="M902.6,931c0,20.4-9.9,40-27.6,57.8c0,2.1,0,4.3,0,6.4c19.8-19.9,30.8-41.7,30.8-64.5
		c0-22.7-10.9-44.5-30.5-64.3c-0.5,1.7-1.1,3.4-1.8,5C892.3,889.8,902.6,909.9,902.6,931z"/>
	<path class="st1" d="M190.8,840.4c1.3,0.8,2.6,1.7,3.9,2.5c20.6-12.1,45.2-23,73.3-32.3c-1.3-4-2-8.3-2.1-12.7c0-0.4,0-0.8,0-1.2
		c0-1.1,0-2.1,0.1-3.2c-33.9,10-63.8,22.2-88.8,36C179.8,834.4,185.1,836.7,190.8,840.4z"/>
	<path class="st1" d="M640.5,783.2c1.4-3.5,3.2-6.8,5.3-9.9c-31.6-5-65-8.5-99.8-10.1c1.6,3.8,2.7,7.9,3.3,12.2
		C580.9,776.6,611.5,779.2,640.5,783.2z"/>
	<path class="st1" d="M457.2,776.6c0.5-4.8,1.7-9.3,3.5-13.5c-37.8,1.5-74.1,5.2-108.2,10.8c2.5,4.4,4.3,9.2,5.2,14.3
		C389,782.6,422.3,778.7,457.2,776.6z"/>
	<path class="st1" d="M730,801.1c23.9,6.4,45.9,13.9,65.7,22.2c1.7-2,3.6-3.8,5.6-5.5c-21.4-9.9-45.6-18.7-72.1-26.2
		c0.5,2.7,0.8,5.5,0.8,8.4C730.1,800.3,730,800.7,730,801.1z"/>
	<path class="st2" d="M521.9,924.9c-4.9,4.9-2.4,8.7-5.3,9.5c-4.7-0.6-3.9,3.6-4.3,5.7c-0.5,2.1,1.2,6.5,2.1,8.6
		c0.9,2.1,3.5,2.4,6.5,1.1c3-1.3,3.8,0.2,4.5,1.6s1.2,8.9,0.7,12c-0.5,3.1-2,7-3.6,8.7c-1.6,1.7-1.9,3.2-1.3,6.8
		c0.6,3.6,3.6,3.6,6.2,3.3c2.5-0.3,11.2-0.1,13.5,0.5c2.3,0.6,1.1-1.7,1.3-3.9c0.2-2.2-1-2.3-2.2-3.5c-1.2-1.2-1.6-1.9,0.6-5.8
		c2.3-3.8,0.4-12.3,0.4-13.6c0-1.3,0.9-3.5,1.2-5.1c0.2-1.6-0.2-3.5-1.9-6.6c-1.7-3.1,1.5-5.1,3.8-6.2c2.3-1.1,4.7,0.8,6.1,2.5
		c1.4,1.7,1.2,3.2-1.1,6.3c-2.3,3.1,1.1,6.4,5.8,9.1c4.7,2.7,3.1,5.8,3.2,9.3c0.1,3.5,2.2,6.1,4.3,7.5c2,1.4,1.6,3.6,2.3,5.5
		c0.7,1.9,2.1,1.6,2.1,1.6s6.4-0.2,8.8,2.3c2.4,2.6,2.8,1.6,4.4,1.6c1.6,0,2.2-1.2,3.3-2.2c1.1-1,2.7-2.7,4.7-2.9
		c2-0.2,1.8-0.9,1.8-0.9s-1.3-2-3.4-2.1c-2-0.2-1.2-1.6-1.4-2.7c-0.2-1.2,0.7-1.1,0.7-1.1s1,0.1,2.3,0c1.3-0.1,0.4-4.6,0.4-6.2
		c0-1.7-1.2-0.5-2-0.7c-0.8-0.2,0-1.7,0-1.7s2-1.8,2.7-2.9c0.6-1-2.1-3-3.2-3.2c-1.2-0.1-5.9,1.1-5.9,1.1c-0.9-2.2-7-4.2-7-4.2
		s-0.3-3.8-0.5-4.9c-0.2-1.1,2.1-2.4,3.1-3.5c1-1-0.2-1.6-0.2-1.6C574,941.1,561,929,561,929l6.5-6.5c3.7,0.5,9.5-2.7,10.3-3.7
		c0.9-1,1.6-1,1.9,1.1c0.4,2.1,4.6,2.1,7.7,2.9c3.1,0.9,3.5-1.3,5-2.2c1.5-0.9,1.5-2.8,1.3-4c-0.2-1.2-1.1-1.3-1.1-2.6
		c0-1.3-0.4-1.8,0.6-2.8c1-1,0.3-2,0.3-2c-1.7-2.4-7.1-3.2-9.2-3.1c-2.1,0.1-4.3,1.2-4.3,1.2c-6.9,0-11.2,2.8-12.8,4.1
		c-1.6,1.3-2.1,0.5-2.1,0.5c0-3.1-5.2-3.1-5.2-3.1c-1.7-0.2-1.5,1.4-2.9,3.2c-1.1,1.3-3,2.8-4.3,3.7c-3.1,2.1-4.6,0-4.6,0
		s-3.2-3.2-4.5-4.6c-1.3-1.4-2.1-1.4-2.1-1.4h-3.9l-0.9-11.3c1.5-3.5,5.8-6.4,5.8-6.4s35.9,1.3,38.2,0.5c2.4-0.9,5.4,0.6,6.3,1.7
		c0.9,1.1,1.7,1.8,3.9,0.9c2.1-0.9,11.5-1.5,14.3-0.9c2.8,0.5,3.6-1.2,3.6-1.2s11-13.5,13.2-15.5c2.1-2-1.7-6.1-2.9-7.3
		c-1.2-1.3-2.5,0.6-2.5,0.6l-9.4,8.1l-8.1,5.8c-6.9-1.9-18.4-1.3-18.4-1.3c-5.1-2.8-17-2-20.9-4.6c-3.9-2.7-9.6-2.9-11.8-2.1
		c-2.2,0.8-1.8,4.1-4.2,6.4c-2.4,2.3-0.9,1.3-3.1-1.2c-2.1-2.4-3.2,0.4-3.2,0.4s-6.8,8.9-8.1,11c-1.3,2.1-0.9,8.9-0.5,11.5
		c0.4,2.6-1.8,3.9-1.8,3.9c-7.7,5.5-6.1,12-5.6,13.2C522.1,922.8,523.2,923.4,521.9,924.9z M567.5,971.2c0.6-0.8,1.7-0.3,1.7-0.3
		s0.2-3.1,0.3-4.6c0.1-1,2.3-1.6,4.2-1.5c1,0.1,1.8-0.2,2.2,0.8c1,3-0.8,1.5-2.8,2.9c-2,1.4-0.3,3.7-1.1,5.3
		c-0.4,0.8-1.5,0.4-2.5,0.4c-1-0.1-2,0.3-2.2-0.1C566.7,973.4,566.9,972,567.5,971.2z"/>
	<path class="st2" d="M164.3,855l0.4,4.8c0.4,0.3,1.6,0.9,3,1.7c5,2.8,14.1,7.7,14.1,7.7c0.7,0.5,2,1.4,2.5,2.6
		c0.5,1.1,0.3,2.5,0.7,4c0.5,2.1,1.6,4.6,2.2,6.8c1.2,4.2,2.6,7.8,2.6,7.8c0.5,2.9,4.2,3.3,7.4,5c2.2,1.2,4.1,3.3,4.1,3.3
		c0.1,0.6,1.6,2.9,3.5,5.2c1.3,1.5,2.7,2.6,4,4.5c1.8,2.5,2.8,5.7,4.3,8c2.4,3.9,4.8,6.2,4.8,6.2c0.8,10.9,2.9,8.4,6,12.4
		c3.1,4,7,8.1,10.4,10.8c4.1,3.3,7.3,4.6,7.3,4.6c-0.2,0,0.5,4.4,0.5,4.4c2,2.3,7.1,6.3,10.3,8.2c2.2,1.3,3.3,0.9,3.3,0.9
		s1.8,3.1,3.4,4.7c1.6,1.5,4.8,1.5,4.8,1.5s3.9,2.5,9.3,7.2c5.4,4.7,6.2,7.2,8.6,8.5c3.5,0.7,2.4-3.1,2.5-4.3
		c0.1-1.2,1.5-0.5,1.5-0.5c4.5,3.2,7.7-2.3,7.7-2.3l1.7,0.1c0.4,2.1,1.7,3.9,3.1,4.2c1.8,0.3,3.9-1.6,4.6-4.6
		c0.7-3.1,0.3-7.3,0.2-11.7c-0.1-9-0.5-18.3-0.5-18.3c2.4-1.4,4-4.7,4-6.6c0-1.9,0.7-2,0.7-2l2,1.7H320c-0.6-10.4-5.9-8.4-8.7-10.4
		c-2.8-1.9-2.1-9.5-2.1-9.5c-14.5-8.3-16.1,1.1-16.1,1.1c-5.1-0.9-6.3,3-6.3,3l-4.5-3.1c0.8-12.3-6.3-12-11.5-12.9
		c-3.1-0.5-5.5-1.5-5.5-1.5c-2.3-1.2,0.7-4,1.9-6.2c0.7-1.3,0-2.2,0-2.2c-0.8-1.1,0-1.5,1-2.3c1-0.8,2.2-2,2.2-2
		c1-1.3-3-4.6-6.3-6.5c-1.9-1.1-3.7-1.3-4.1-1.5c-1.2-0.4-1.3-1-1.3-1c1.5-10-9.8-8.9-9.8-8.9c4.9-7.3-11.9-6.6-11.9-6.6
		s-0.6-4.9-1.6-6.3c-2.1-2.2-9.1-2.1-9.1-2.1c-4.8-3.3-8.5-1.5-10.5-0.1c-3.2,0.6-2.3-1.7-2.3-1.7c-0.5-5.5-9.6-11.6-18.8-17.5
		c-1.3-0.8-2.6-1.7-3.9-2.5c-5.7-3.7-11-6.1-13.7-11c-0.1-0.1-0.2-0.2-0.2-0.3c-3.8-7.6-7.1-9.1-11.8-11.6
		c-4.6-2.5-21.2-1.5-21.2-1.5c-8.2-9.2-16.4-5.9-16.4-5.9c-0.6,4.4-0.6,8.1,0.9,11.3c2.8,6,8.7,10.9,14.7,14.7
		c2.8,1.8,5.7,2.9,8.2,4.6c1.3,0.9,2.1,1.9,2.7,2.9c0.6,0.9,1.1,1.8,2,2.7C160.3,850.9,164.3,855,164.3,855z"/>
	<path class="st2" d="M142.5,860.9c0,0,3.9,3,6.4-0.2c1.5-1.8-1.6-3.8-4.4-5.8c-1.1-0.7-2.1-1.5-2.9-2.1c-0.8-0.6-1.4-1.1-1.4-1.1
		s-2.9-0.7-5.8-0.6c-2.5,2.6-0.5,4.2,2.1,5.8c0.5,0.3,1.1,0.7,1.7,1C140.4,859.4,142.5,860.9,142.5,860.9z"/>
	<path class="st2" d="M162.9,872.4c-3.6,0-6,0.3-6,1.6c0,1.3-0.7,2.3,3.6,3.6l0,1.6l4.9,4.9c0,0-0.7,3.4,1.4,3.4
		c2.1,0,4.7,0.6,4.7-1.3c0-1.8,0-6.6-2-9C167.5,875,166.5,872.4,162.9,872.4z"/>
	<path class="st2" d="M180.7,894.6h6.9c0,0-0.8-4.3-3.7-4.3c-2.9,0-2.6,2.2-6.1,3.1c-2.4,1.6-0.5,2.7-0.2,3.6v4c0,0-2.3,0.8-1.7,2.5
		c0.6,1.7,2.8,1.9,3.8,0.6c1-1.3,3.2-3.4,3.2-4.3C182.9,895.8,180.3,897.2,180.7,894.6z"/>
	<path class="st2" d="M189.5,910.2c-0.6-1.8-1.4-1.8-4.2-2.2c-2.8-0.4-3.2,0.7-3.2,0.7c-3.2,7.5,4.7,12.3,4.7,12.3s3.9,2.8,7.2,0.3
		c2-1.5-0.5-4.7-2.5-7.3C190.3,912.4,189.7,910.9,189.5,910.2z"/>
	<path class="st2" d="M213.5,938.3c-5.5-6.1-9.6-8.6-9.6-8.6c-3.2-2.4-1.6-2.1-2.1-4.4c-0.5-2.3-3.5-1.1-3.5-1.1
		c-2.2,1.1-2.4,2.5-2.4,2.5c-1.4,3.1,2.2,3.2,3.2,3.6c2,0.8,3.8,0.4,4.1,3.5c0.4,4.1,3.2,2.8,5.5,8.3c2,3.5,4.4,0.6,5.6-1
		C215.5,939.5,213.5,938.3,213.5,938.3z"/>
	<path class="st2" d="M329.1,935.7c0.6,0.9-0.1,2.4-0.1,6.1c0.2,3.1,6.1,2.3,9.4,2.8c2.1,0.3,1.8-0.7,2.2-2.8
		c0.2-1.1,1.1-2.9,1.7-3.9c1-1.7-0.4-2.1-2.1-3c-1.2-0.6-2.6-1.8-3.5-2.4c-1.1-0.8-2.7-0.6-4.2-0.1c-1.4,0.5-2.7,1.2-3.4,1.7
		C327.7,935,329.1,935.7,329.1,935.7z"/>
	<path class="st2" d="M464.3,1021.6c-3.9-1.7-6.1-7.2-10.1-5.9c-1.4,0.5-2,1.8-2,1.8l-8.1,0.1v-3.6c0,0,0.2-3.1-5.5-3.1
		c-5.6,0-17.8,2.2-21.3-1.2c-0.4-1.2-0.9-3-0.4-3.7c0.7-1.1,2-0.8,2.9-0.9c0,0,10.8,0.6,15.3-1.9c4.5-2.5,6-4.2-1.8-4.6
		c-7.8-0.5-36,1.2-47.2-6.5c0,0-3-2-5.5,0c-2.5,2-3.9,5.7-3.9,5.7s-20.1-0.6-29-3.5c0,0-2.4-7.3-17.1-7.3c0,0-6.4-7.5-12.4-2.3
		c0,0-13.2-3.1-15-1.2c-0.6,0.7-1.3,1-2.1,2.1c-0.6,0.8-1.2,2.3-2,3.2c-1.4,1.8-3.4,2.6-3.5,5.2h-4.3c0,0-3.2,2.4,0,5.1h4.3
		c0,0,10.8-0.4,13,1.7v4.7c0,0,0.7,1.9,3.6,1.9c3,0,11.1,0.4,12.7,1c1.6,0.5,4.7,3.3,11.7,3.6c6.9,0.3,27.7,0.2,27.7,0.2
		s7.5,8.6,25.3,8.1c0,0,3.1,5.1,8.8,1.4c0,0,2.3,0.1,5.7,1.4c3.4,1.2,7.8,2,9.1,1.4c3.6-0.7,5.7-3.3,8-2.4c2.3,1,14,5.4,16.1,6.1
		c2.1,0.8,6.6,4.3,9.7-2.8c1.2-1.5,3.1,0,3.1,0s2.8,2.5,3,3.4c0.1,0.9,0.8,1.4,1.6,1.1c0.8-0.2,2.6-3.7,3.4-4
		c0.8-0.3,3.1-0.6,3.7-1.1C462.2,1024.5,466.3,1023.1,464.3,1021.6z"/>
	<path class="st2" d="M351.9,902.2c-0.3,2.8,0.4,2.7,0.4,2.7l5.6,3.6c0,0,0.1,4.6,0,7.3c0,2.7,0.7,1.7,0.7,1.7s3.4-3.2,7.7-1.8
		c4.4,1.3-0.4,6.3-0.4,6.3c-0.8,1,0.1,3.3,1.3,6.7c1.4,3.8,3.1,8.8,3.1,8.8s-0.7,3.2,6.7,5.6c7.4,2.3,10.9-0.7,10.9-0.7
		s4.4-1.3,6.5-0.2c2.1,1.1,2.4,7.8,2.4,7.8l13-0.3c0,0,7-2.7,9.6-4.1c2.5-1.5,3.3,0.1,3.3,0.1c7.4,7.7,10.6,1.5,17,3.4
		c6.4,1.9,4.6,11.9,4.6,11.9l20-7.9c3.2,4.5,8.2,6.1,8.2,6.1l1.5-22.2c8.4-1.7,2.3-11.8,1.2-14.1c-1.2-2.3,0.3-2.5,0.3-2.5
		s15.6-8.3,18.7-12c3.1-3.6-0.3-4.1-1.3-7.5c-1-3.4,4.8-12.5,5.7-14.2c0.9-1.7,6.8-0.1,11.3,0.3c4.5,0.5,9.7-3.6,9.7-3.6
		c2-0.9-1.5-2.1-5.4-4.4c-4.1-2.3-8.8-5.8-8.8-5.8s-4.3-3.2-4.1-5.4c0.2-2.2,3.4-3.9,3.9-4.6c0.5-0.7-7.1-9-9.2-11.4
		c-2.1-2.3-0.6-2.4,1.9-6.5c2.5-4.2,0-10.5,0-10.5c-0.4-1.1-4.7-0.5-10-0.8c-4.8-0.3-10.4-1.4-14.6-1.7c-3.8-0.3-6.5,0.1-6.5,0.1
		c-7.4,0-7,15-7,15c-11.9,7.5-10.4,14-10.4,14c-4.1,3.6-5.9,12.8-5.9,12.8c-3.5,0-10.4,1.5-14.8,3.4c-4.4,1.9-5.9,0.2-5.9,0.2
		l-6-3.7l-10-0.2l-6.8,8.3l-14.8,0.1c0,0-4.1,0.2-5.9,1.3c-1.8,1.1-2.4,0.3-2.4,0.3l-11.6-12.3v-5.5c-0.4-1.8-4,0.1-6.3,0.7
		c-0.9,0.5-1,0.9-1,0.9s-8.1,12.7-9.6,16.1c-1.5,3.4,1.8,9.8,3.1,11C352.7,896.1,352.2,899.5,351.9,902.2z"/>
	<path class="st2" d="M521.6,1026.8c0.5-2.8-1.2-2.9-2.8-3.9c-1.6-1-2.1-3.3-2.1-3.3l-11.6-0.7c0,0-1.5-3.4-6-3
		c-6,0.1-7.8,4.9-7.8,4.9c-4.6-0.3-7.1,2-8.1,2.6c-1,0.6-1.8,0.4-1.8,0.4c-1.5-7.4-9-5.5-9-5.5c-0.4,0.1-3.2,0.8-3.6,1.4
		c-0.2,0.2-0.2,1.4-1,2.7c-1.3,2.2-3.5,4.9-3.5,4.9s-2.4,2.9,1,3.7c8-0.1,12,0.8,12,0.8c2,0.1,3.8,1,5.3,1.2c2.9,0.4,5,0.3,6.7,0.3
		c2.4-0.1,3.8-2.1,3.8-2.1s5.9,0.2,7.8,0c2-0.2,4.7-1.8,4.7-1.8l12.3-0.2C517.8,1029,521.1,1029.6,521.6,1026.8z"/>
	<path class="st2" d="M540.5,1039.5c-1.1-0.6-3.8-0.6-5.7-2.4c-2-1.8-16.9-1.5-18.5-1.5c-1.6,0-3.3,1.4-3.3,3.9c0,2.4,3.3,3,3.3,3
		c7.7,0.2,11,1.4,16.1,5.9c5,4.5,6.2,2.9,10.8,2.2c4.6-0.6,1.7-3.9,1.7-5.7C544.7,1043.2,541.6,1040.1,540.5,1039.5z"/>
	<path class="st2" d="M585.2,1025.5c3.4,2.7,6.3,1.1,7.2,0.2c0.9-1,1.1-3,2.8-0.8c1.7,2.2,3.5,2.5,6.4,0.6c2.9-1.9,9.6-1,12.9-1.4
		c3.2-0.3,3.2-2.8,2.8-4.2c-0.5-1.3-9.3-1.5-11.6-1.7c-2.3-0.1-2,1.5-2,1.5c-0.4,0.1-3.8-0.6-7.7-0.7c-6-0.2-13.4,0.1-13.4,0.1
		c-1.1-3.1-6.1-4.8-6.4-1.3c-0.3,3.4-4.5,5.6-4.5,5.6l-19-0.8c0,0-4.5-2.9-8.3-4.3c-3.8-1.4-9.9,0.6-9.9,0.6
		c-1.8,0.3-7.5,3.3-7.7,6.1c-0.1,2.9,2.4,3.9,2.4,3.9c2.2,0.8,6.4,0.7,11.1,1c3.7,0.2,7.8,1,11.3,1c8.1,0.1,15.4-1.6,20.8-2
		c5.4-0.4,9.7-3.1,9.7-3.1S583.3,1024.4,585.2,1025.5z"/>
	<path class="st2" d="M638.6,1024.8c-5,0.3-10.6-0.3-15,0.5c-9.6,1.6-9.9,6.6-9.9,6.6c-2.8,0.2-6.8,4.1-6.8,4.1
		c-10.8,0-15.7,4.8-19.3,15.6c-5.1,4.7-10.1,7.5-10.1,7.5c-0.7,0.6-2.1,0.7-0.7,1.9c3.2,2.1,7,1.4,7,1.4c2.6-0.7,4.9-6.8,5.7-8.7
		c0.8-1.9,2.2-0.8,2.2-0.8s5.1,0.8,10.3,0.2c5.3-0.6,18.4-15.1,18.4-15.1c8.1,1.5,12.4-4.1,12.4-4.1s8.1-1.8,14.6-4
		c6.4-2.3,3.2-5.7,3.2-5.7C649.6,1022.8,644.6,1024.4,638.6,1024.8z"/>
	<path class="st2" d="M626.3,1014.3c-0.2,0.9-0.8,1.3-0.3,2.1c1.2,2.4,2,0.7,2,0.7s5.8-0.7,7.4,0.1c1.7,0.8,2,1.2,2.7,0.3
		c0.7-1,3.3-1.6,5-1.9c1.6-0.3,2-1.4,0.9-3.5c-1.2-2-4.9-1.3-4.9-1.3s-2.2-0.2-3.2,0c-1,0.2-6.4,0.6-6.4,0.6
		C627.4,1011.5,626.7,1012.8,626.3,1014.3z"/>
	<path class="st2" d="M619.5,923.6c-0.9-1.1-4.2-0.4-5.2-0.4c-1,0-4.5-0.2-6.7-0.5c-2.3-0.3-4.6,4.1-2.1,6.7c2.5,2.5,3.5,0,3.5,0
		l19.3-0.1c2.6,0,0.5,7.1,4.2,7.6c1,0.6,2-0.8,2.8-1.7c0.8-0.9,0-2.1-0.9-3c-0.9-0.9-0.9-2.7-0.9-2.7s0.8,0.1,2.9,0.1
		c2,0,2-1.5,2-2.9c0-1.5-1.6-1.5-1.6-1.5h-15.2C621.5,925.1,620.4,924.6,619.5,923.6z"/>
	<path class="st2" d="M649.3,944.5c-3.2-2-14.7-0.2-17.9,0.9c-3.2,1.1-1,2.6-1,2.6s4.7,5.4,8,8.5c3.3,3.1,6,1.6,9.7,0.8
		c3.7-0.9,5.3-1.9,6-4.8C654.8,949.6,652.4,946.5,649.3,944.5z"/>
	<path class="st2" d="M663,926.1c1.2,0.9,3.8-0.1,4.7-1c0.9-0.9,2.3-3.1-0.6-3.4c-2.9-0.3-6.6-4.4-8.8-3.5c-2.2,0.9-3.7,1.8-3.4,4
		c0.3,2.3-0.1,5.3,5.7,3.8C660.6,926.1,661.8,925.1,663,926.1z"/>
	<path class="st2" d="M658.5,913.5c5.7,3.8,4.1-5.4,8.8-1.4c4.7,4,5.6,1.5,4.5-2.1c-1-1.7-5.3-2.4-6.1-8.8c-0.8-6.4-2.1-8.4,1.6-7.8
		c3.7,0.6,3.6,1.9,6.6,3.3c2.9,1.4,6.2,1.5,6.5,0.1c0.2-1.4,0.8-2.2-3.4-4.8c-4.2-2.6-6-2.8-6-2.8s-1-1.4,1.4-2.5
		c2.4-1.1,2.7-2,4.1-3.9c1.4-2,3.6-3.6,2.4-5.7c-1.3-2.1-2.1-2.2-4.2-1.6c-2.1,0.6-4.7,1.3-5.7,2.9c-1.1,0.4-1.8-0.7-2-1.8
		c-0.3-1.1-1.9-2.6-0.8-4.5c1.1-1.9,1.4-2.5,1.4-2.5s0.5-0.5,1.3,0s0.9,2.4,3.6,0c2.8-2.4,8.3-5.4,5.9-7.4c-2.4-2-5-1.6-6.6-0.6
		c-1.6,1-7.7,4.4-8.6,5c-0.9,0.6-6.5,7.1-6.4,9.2c0.2,2.1,0,12.1,1.1,15.1c1.1,2.9,1.3,4.6,1.3,4.6l-0.1,7.5c0,0-2.8,1.1-4,1.1
		c-1.2,0-1.5,0.1-1.6,1.3C653.4,906.6,652.8,909.7,658.5,913.5z"/>
	<path class="st2" d="M704.6,944.7c-1.1-1.5-4.1-1.6-6.8-2c-2.4-0.4-4.4-1-4.4-1h-27.2c-0.5,0.1-0.5,0.5-1.1,1
		c-1.1,0.9-3,2.1-3.7,3.1c-1.2,1.6-0.2,3.5,1.3,6.1c1.2,1.9,1.5,1.6,2.8,0c0.4-0.5,1.5-1.1,2-1.9c2-2.9,0.4,2,4.1,2
		c3.7,0,4-1.3,5-2.6c0.9-1.3,3.3,0.6,5.4,2c0.7,0.4,1.6,0,2.5,0.1c2,0.1,4.1,0.1,5.2-0.8c1.6-1.4,3.3-0.1,3.3-0.1s10.9,7.3,14.6,7.7
		c3.7,0.5,3.3-3.9,3.6-5.4C711.7,951.4,704.6,944.7,704.6,944.7z"/>
	<path class="st2" d="M762.1,1005.5c2.1,0.2,4-0.6,6-2.8c2-2.2,3-2.5,4.5-3c1.4-0.5,1.9-2.6,1.1-3.6c-0.8-1,0.8-3.5,0.4-6.4
		c-0.4-2.9,1.2-7.6-2.9-9c-2-0.7-3.2,0.9-5,2.9c-1.9,2.1-4.2,4.5-2.6,4.7c0,0,1,0.6,0,1.7c-0.9,1.1-2.4,1.4-2.5,3
		c-0.1,1.7-0.3,6.4-0.3,6.4s-1.6,0.6-1.2,1.7C760,1002.2,759.9,1005.3,762.1,1005.5z"/>
	<path class="st2" d="M875,988.8c0.1-23.1,0.3-45.8,0.3-46.9c0-2.4-1.3-2.3-1.3-2.3c-3.8-2.2-19.6-3-19.6-3c-1-1.5-7.5-4.6-13.5-5.2
		c-1.4-0.7-4-2-5.4-2.7c-5.3-3-8.1-5.5-8.1-5.5c-4.3-3.2-6.8,0.4-9,1.4c-1.6,0.8-3-0.3-4.5,1.3c-1.5,1.7-1.3,5.6-5.3,5.8
		c-12.7,0.5-21.5,17.9-21.5,17.9h-11.3l-2.9-4.8c0,0,0.2-5.7,0-7.4c-0.2-1.7-0.5-2.1-1.9-2.6c-1.4-0.5-3.8,3.2-3.8,3.2h-2.5
		l-0.8-6.1c2.1-1.1,2.3-4.8,0.6-6.3c-1.7-1.5-0.1-2.7-0.1-2.7c2.4-2.7-0.4-5.2-0.4-5.2c2.2-7.1-4.7-7-8.6-7.2
		c-1.3-0.1-2.8-0.7-2.8-0.7s-9.9-4.6-16.6-3.9c-6.7,0.7-9,3.9-13.2,4.7c-4.2,0.9-6.7,2.4-6.7,2.4s-4.1,0-6.7,0
		c-2.6,0-2.5,0.6-2.5,0.6c-1.1,6,5.6,8.9,5.6,8.9c3.8,2.2,2.6,0.4,8.8,0.6c7.1,0.3,4.2,4.9,10.3,10.2c4.7,4.5,13.9,1.1,17.7-0.1
		c3.8-1.3,3.5-0.2,4.5,1.5c1.1,1.7,3.1,3.8-0.6,2.6c-3.7-1.2-10.8,1.7-12.6,2.3c-1.8,0.6-3,0.3-3,0.3s-3.6-1.7-6.4-1.3
		c-2.8,0.4-4.7,1.8-2.8,4.8c1.9,3,4.5,1.7,4.5,1.7s5.8,4,7.5,5.4c1.7,1.4,0.1,2.4,0.1,2.4c-3.8,5.4-0.4,8.5,5.4,10.8
		c5.8,2.3,8.9-6.8,8.9-6.8c0.5-1.8,1.1-0.4,1.1-0.4c6,5.4,14.9,4.2,14.9,4.2l10,9c15.2-0.3,19.8,2,25,3.9c4.5,1.7,7.8,3.3,7.8,3.3
		c12.9,6.5,13.6,10.4,15.9,15.1c2.1,4.2,3.6,7.7,4.7,9.7c2.2,4.2,2.4,6.3-1.5,8.9c-3.9,2.6-6.7,5.8-8.3,9.3
		c-1.6,3.5-2.4,2.3-4.9,4.3c-1.4,1.8-1.4,2.7-0.2,3.4c1,0.6,2.9,1,5.6,1.5c1.5,0.3,2.6,0.5,3.5,0.6c2.7,0.4,3.4-0.1,4.4-0.5
		c1.3-0.6,2.7-0.5,4.5-0.4c1.8,0.1,3.9-1.7,4.8-3.9c1-2.2,2.3-0.8,2.3-0.8c4,3,10.2-1.4,10.2-1.4c1.1,2.1,8,5.8,12.1,11.1
		c4.1,5.2,8.2,5.1,8.2,5.1s0.1-21.2,0.3-43.9C875,993.1,875,990.9,875,988.8z"/>
	<path class="st2" d="M265.9,797.8c0.1,4.4,0.9,8.7,2.1,12.7c5.9,18.8,23.5,32.4,44.2,32.4c25,0,45.4-19.9,46.3-44.7
		c0-0.5,0-1.1,0-1.6c0-2.9-0.3-5.7-0.8-8.4c-0.9-5.1-2.7-9.9-5.2-14.3c-8-14.1-23.1-23.6-40.4-23.6c-24.5,0-44.6,19.1-46.2,43.2
		c-0.1,1-0.1,2.1-0.1,3.2C265.9,797,265.9,797.4,265.9,797.8z M312.2,841.7c-13.7,0-26-6.2-34.3-15.9h67.9h0.7
		C338.2,835.5,325.9,841.7,312.2,841.7z M267.3,793c1.8-23.2,21.3-41.5,44.9-41.5c16.7,0,31.2,9.1,39.1,22.6
		c2.5,4.4,4.3,9.2,5.3,14.3c0.5,2.7,0.8,5.4,0.8,8.2c0,0.3,0,0.7,0,1h-18.5c0,4.7-12.3,7.9-20.2,8.7c-3.7,0.4-6.4-0.1-6.4-0.1
		c5.4,1.7,11.8,0.3,13.1,0c1.3-0.3,2.1-0.3,2.1,0.4s-1,1-1,1c-17.8,2.2-13-1.3-21.5-1.3c-8.5,0-11.9,8-11.9,4.7c0-3.9-0.9-6-4-6
		c-3.1,0-2.8,2.4-6.8,2.4c-1.2,0-2.1-0.2-2.6-0.6c-1.2-0.8-0.9-2,0.2-2c1.4,0,0.9,1.1,2.3,1.2c0.1,0,0.3,0,0.4,0
		c0.6,0,1.3-0.3,2-0.8c1.4-0.8,2.8-2.1,4.4-2.1c0.6,0,1.2,0.1,1.7,0.3c1.5,0.5,2.5,1.5,2.5,1.5c-0.1-0.5-0.2-1.3-0.3-2.1
		c-0.3-2.3-0.7-5.4-0.7-5.4h-24.8c0-0.3,0-0.7,0-1C267.1,795.4,267.2,794.2,267.3,793z"/>
	<path class="st2" d="M292.1,792.2c-0.2-2.1-0.5-4-0.9-5.7c-1.2-6-2.7-9.2-2.7-9.2c-4.2,0.7-2.1,5.8,0.2,9.9
		C290.4,789.9,292.1,792.2,292.1,792.2z"/>
	<path class="st2" d="M294.5,802.5c0.1,2,0.1,4.2,0.2,6.5c6.3-7.4,15.2-2.5,25.1-4.6c10.5-1.7,14.4-4,15.9-4.5
		c2.5-0.7,1.8-5.4,1.8-5.4c-1.9,0-4-0.4-6.3-1.2c-6.9-2.2-15.2-7-22.6-11.1c-2.9-1.6-5.6-3-8-4.1c-3.8-1.7-10-1.6-10-1.6
		s1.3,2.6,2.5,9.5C293.6,790,294.2,795.4,294.5,802.5z"/>
	<path class="st2" d="M296,775.4h8.2v3.2l6.2,3.4l10.3,5.5v-7.6l1-0.4l1-0.4l0.2,0.1l8.6,6.4l-0.6-7.6l-0.4-0.3l-4.2-3.6h-31.6v1.9
		h1.3V775.4z M316.2,775.5h8.8v2.8l-0.8,0.3h-8V775.5z M305.4,775.5h9.5v3.1h-9.5V775.5z"/>
	<path class="st2" d="M322.4,780.4v7.7c2.7,2.2,10.8,4.5,11.8,4.8c0.1,0,0.1,0,0.1,0c0,0,0,0,0-0.1c0-2.4-1.9-2.5-1.9-2.5V787
		C327.1,784.7,322.4,780.4,322.4,780.4z M324.5,787.1c-0.8,0-1.4-0.9-1.4-2c0-1.1,0.6-1.9,1.4-1.9c0.8,0,1.4,0.9,1.4,1.9
		C325.9,786.2,325.3,787.1,324.5,787.1z M327.7,788.7c-0.7,0-1.2-0.7-1.2-1.5c0-0.8,0.6-1.6,1.2-1.6c0.7,0,1.2,0.7,1.2,1.6
		C329,788,328.4,788.7,327.7,788.7z M330.8,790.2c-0.6,0-1.1-0.6-1.1-1.4c0-0.8,0.5-1.4,1.1-1.4c0.6,0,1,0.6,1,1.4
		C331.9,789.6,331.4,790.2,330.8,790.2z"/>
	<path class="st2" d="M313,766.7c-3,0-3.2,1.3-3.2,1.3l-1.7,4.9h10.5C318.6,769.8,317.1,766.7,313,766.7z"/>
	<path class="st2" d="M329.9,776.6c0-1.6-2.3-4.8-5.6-4.8c-2.4,0-2.4,1.7-2.4,1.7l4.4,0.1L329.9,776.6z"/>
	<path class="st2" d="M480.1,806.2h9.5v-39.6h12.7v4.4c-0.7,0.8-1.4,1.4-2,1.9c-1.2,1.1-2.2,1.9-2.2,3.3c0,3.4,2,5.7,5.1,5.7
		c3,0,5-2.3,5-5.7h-1.9c0,1.8-0.8,3.8-3.2,3.8c-2,0-3.2-1.4-3.2-3.8c0-0.5,0.5-1,1.5-1.9c0.6-0.6,1.4-1.3,2.3-2.2
		c0.2-0.2,0.2-0.6,0.2-0.6v-4.9h12.7v-9.5h-40.8v9.5h4.3V806.2z M482,785.5l2.8-8.2l2.8,8.2H482z M487.7,786.1l-2.8,8.2l-2.8-8.2
		H487.7z M482,766.7h5.7l-2.8,8.2L482,766.7z M484.2,776.1l-2.8,8.2v-16.3L484.2,776.1z M484.2,795.5l-2.8,8.2v-16.3L484.2,795.5z
		 M482,805l2.8-8.2l2.8,8.2H482z M488.3,803.7l-2.8-8.2l2.8-8.2V803.7z M488.3,784.2l-2.8-8.2l2.8-8.2V784.2z M497.8,765.4l8.2-2.9
		l8.2,2.9H497.8z M515.4,764.8l-8.2-2.8l8.2-2.8V764.8z M514.1,758.5l-8.2,2.8l-8.2-2.8H514.1z M496.6,759.1l8.2,2.8l-8.2,2.8V759.1
		z M495.9,764.8l-8.2-2.8l8.2-2.8V764.8z M494.7,758.5l-8.2,2.8l-8.2-2.8H494.7z M477.1,759.1l8.2,2.8l-8.2,2.8V759.1z M478.3,765.4
		l8.2-2.9l8.2,2.9h-5.1h-9.5H478.3z"/>
	<path class="st2" d="M516,768.4v5h-2.9v2.7h2.9v4.9h-2.9v2.7h2.9v5h2.7v-5h10.6v5h2.7v-5h3.7V781H532v-4.9h3.7v-2.7H532v-5h-2.7v5
		h-10.6v-5H516z M529.4,776.1v4.9h-10.6v-4.9H529.4z"/>
	<path class="st2" d="M457,781.4c0,0.4,0,0.8,0,1.2c0,0.7,0.1,1.5,0.1,2.2c0,0,0,0.1,0,0.1c0.8,10.9,5.4,20.7,12.4,28.1
		c0.2,0.2,0.4,0.5,0.7,0.7c8.4,8.6,20.2,14,33.1,14c13,0,24.7-5.4,33.1-14c0.2-0.2,0.4-0.5,0.7-0.7c2-2.1,3.8-4.4,5.3-6.9
		c3.9-6.2,6.4-13.5,7-21.2c0-0.6,0.1-1.2,0.1-1.8c0-0.6,0-1.1,0-1.6c0-2-0.1-4-0.4-5.9c-0.6-4.3-1.7-8.4-3.3-12.2
		c-7.1-16.6-23.5-28.3-42.7-28.3c-19.1,0-35.5,11.6-42.6,28c-1.8,4.2-3,8.7-3.5,13.5C457,778.2,457,779.8,457,781.4z M534.7,813.7
		c-8.1,7.9-19.2,12.8-31.4,12.8c-12.2,0-23.3-4.9-31.4-12.8c-0.2-0.2-0.5-0.5-0.7-0.7h64.2C535.2,813.2,534.9,813.5,534.7,813.7z
		 M458.5,776.5c0.5-4.8,1.8-9.3,3.7-13.5c7.1-15.7,22.8-26.7,41.2-26.7c18.4,0,34.3,11.1,41.3,26.9c1.7,3.8,2.9,7.9,3.4,12.2
		c0.3,2,0.4,3.9,0.4,6c0,0.4,0,0.7,0,1c0,0.8-0.1,1.6-0.1,2.4h-15v5.1h-5.2v-5.1H520v5.1h-5.2v-5.1h-24v22.7h-12v-22.7h-20.5
		c-0.1-0.8-0.1-1.6-0.1-2.4c0-0.4,0-0.7,0-1C458.2,779.7,458.3,778.1,458.5,776.5z"/>
	<path class="st2" d="M713.9,833.4c-2.1,0.1-4.1,0.1-5.9,0.2C711.4,833.6,713.8,833.4,713.9,833.4z"/>
	<path class="st2" d="M668.1,807.6l1.1,0.6c2.3-4.2,8.8-14.6,8.9-14.7l-1-0.7C677,793,670.4,803.3,668.1,807.6z"/>
	<path class="st2" d="M677.4,792.2c0.2-0.4,0.4-0.9,0.6-1.3c0.2-0.5,0.5-1,0.8-1.5c0.3-0.5,0.6-1,1-1.5c0.4-0.5,0.7-1,1.1-1.5
		c0.3-0.5,0.7-1,1.1-1.5c0.4-0.5,0.7-1,1-1.4c0.7-0.9,1.3-1.8,1.9-2.5c0.8-1,1.4-1.8,1.8-2.1c-0.4,0.2-1.4,0.7-2.7,1.3
		c-1.8,0.9-4.2,2-6.7,3.1c-1.2,0.6-2.4,1.2-3.5,1.6c-1.2,0.5-2.3,0.9-3.2,1.2c-0.6,0.2-1.1,0.3-1.5,0.5l8.2,6.2
		C677.2,792.6,677.3,792.4,677.4,792.2z"/>
	<path class="st2" d="M685.2,781.2c-0.5,0.8-1.1,1.7-1.7,2.6c-0.3,0.5-0.6,1-0.9,1.5c-0.3,0.5-0.6,1-0.9,1.5
		c-0.6,1.1-1.2,2.1-1.7,3.1c-0.3,0.5-0.6,1-0.9,1.4c-0.3,0.4-0.6,0.8-0.8,1.2c-0.1,0.2-0.3,0.4-0.4,0.6l12.1,1.7
		c-0.1-0.3-0.2-0.6-0.4-0.9c-0.2-0.4-0.3-0.9-0.5-1.3c-0.2-0.5-0.3-1-0.4-1.5c-0.2-1.1-0.4-2.2-0.6-3.4c-0.4-2.3-0.8-4.6-1-6.3
		c-0.2-1.3-0.3-2.3-0.3-2.7c-0.1,0.1-0.2,0.3-0.4,0.6C686.1,779.8,685.7,780.5,685.2,781.2z"/>
	<path class="st2" d="M689.1,787.6c0.1,0.5,0.3,1.1,0.5,1.6c0.2,0.6,0.3,1.1,0.4,1.6c0.1,0.5,0.2,1,0.3,1.5c0.1,0.5,0.2,1,0.3,1.4
		c0,0.2,0.1,0.4,0.1,0.6c0,0.2,0.1,0.4,0.1,0.5l7.3-1.4l-11.2-14.7c0.1,0.3,0.3,1.3,0.7,2.7C688,783.1,688.5,785.4,689.1,787.6z"/>
	<path class="st2" d="M670,785.1c0.9-0.5,1.9-1,3.1-1.5c1.1-0.5,2.4-0.9,3.7-1.4c2.5-0.9,5-1.9,6.9-2.6c1.5-0.6,2.6-0.9,3-1.1
		l-21.2,0.2l3,7.1C668.9,785.7,669.4,785.4,670,785.1z"/>
	<path class="st2" d="M637.4,800c0,0.4,0,0.8,0,1.2c0,1.3,0.1,2.5,0.3,3.7c1.2,11.3,6.5,21.4,14.3,28.8c8.3,7.8,19.5,12.7,31.8,12.7
		c12,0,23-4.6,31.3-12.2c7.5-6.9,12.8-16.3,14.5-26.8c0.3-1.9,0.5-3.8,0.6-5.7c0-0.2,0-0.4,0-0.5c0-0.4,0-0.7,0-1.1
		c0-2.9-0.3-5.7-0.8-8.4c-4-21.6-22.9-38-45.6-38c-15.7,0-29.5,7.8-37.9,19.7c-2.1,3-3.9,6.3-5.3,9.9
		C638.5,788.4,637.4,794.1,637.4,800z M683.7,845.1c-11.6,0-22.2-4.4-30.2-11.6c0.3,0.1,11.9,3.6,21-0.4c7.3-4.7-19.9-5.1-1.9-7.6
		c0,0,6-0.8,9.6,1.4c4.4,2.8-4,7.5,25.8,6.8c-7.2,0-18.7-0.7-21.1-5.3c-2.9-5.3,29.6-8.4,15.6-11.4c-15.2-1.5-13.7,1.1-9.9,2.3
		c1.6,0.5,2.5,2.5-0.9,3.5c0,0-3.4,0.7-8.1,1c-11.5,0.5-30.5,1.2-22.8,3.6c0,0,22,7.2-7.4,6.1h0c13.9-1.8-0.4-6.7-0.4-6.7
		c-3.2-1.5,0.9-4.6,7-5.5c8.4-1.2,20.7,0.1,23.1,0.2c4.2,0.2,7.7-0.2,1.6-2.8c-6.2-2.5,7.5-7.4,22.5-3.4
		c13.9,6.4-16.1,7.7-12.1,13.6c3.8,4.9,18.5,4.5,18.7,4.5C705.9,840.7,695.3,845.1,683.7,845.1z M679.7,816.4l-6.7,0.8l-0.6,2.7
		l-3-3.2h-7.6l4.3-1.5l-5-2.7l7.4,1.6l6.3-2.8l-1.5,3.9L679.7,816.4z M647.2,773.6c8.2-11.3,21.5-18.7,36.5-18.7
		c21.9,0,40.1,15.6,44.2,36.3c0.6,2.8,0.9,5.8,0.9,8.8c0,0.3,0,0.5,0,0.8c0,0.1,0,0.2,0,0.3c0,1.2-0.1,2.5-0.2,3.7
		c-5.8-1.4-19.3-2.1-31.5-1.9c-12.6,0.2-24.6,1-24.6,1l-3.2,5.4l-2.2-1.4l2.4-4.5c-7.1-0.9-27,0.8-30.6,1.1
		c-0.1-1.2-0.2-2.3-0.2-3.5c0-0.3,0-0.7,0-1c0-5.9,1.1-11.4,3.2-16.6C643.2,779.9,645,776.6,647.2,773.6z"/>
	<path class="st2" d="M784.4,853.6c0,0.4,0,0.8,0,1.2c0,1,0.1,1.9,0.2,2.8c0,0.3,0.1,0.6,0.1,0.9c1.1,10.5,5.8,20.1,12.8,27.3
		c0.5,0.5,1,1,1.5,1.5c8.3,7.8,19.5,12.7,31.8,12.7c12.1,0,23-4.6,31.3-12.2c0.7-0.6,1.3-1.3,2-1.9c4-4.1,7.2-9,9.5-14.4
		c0.7-1.6,1.3-3.3,1.8-5c0.5-1.8,0.9-3.6,1.2-5.5c0.2-1.1,0.3-2.2,0.4-3.3c0.1-0.8,0.1-1.6,0.2-2.4c0-0.6,0-1.1,0-1.7
		c0-25.5-20.8-46.4-46.4-46.4c-11.2,0-21.4,4-29.4,10.6c-2,1.7-3.9,3.5-5.6,5.5C788.7,831.5,784.4,842,784.4,853.6z M861,887.1
		c-8,7.2-18.6,11.6-30.2,11.6c-11.6,0-22.2-4.4-30.2-11.6c0,0,0,0,0,0h0c-0.4-0.4-0.9-0.8-1.3-1.2h6.9l9.2,5.3l3.1-5.3h5.4
		c0.5,0.1,1,0.2,1.5,0.3v7.7h10.9v-7.7c0.5-0.1,1-0.2,1.4-0.3h5.4l3.1,5.3l9.2-5.3h6.8C861.8,886.3,861.4,886.7,861,887.1z
		 M851.1,840.9c-0.1,0-0.4,0.1-0.5,0.2c-0.9,0.9-1.8,1.8-2.7,2.7c-0.4,0.4-0.8,0.8-1.1,1.1c-0.1,0.1-0.2,0.3-0.3,0.4
		c-1.4-1.4-2.8-2.8-4.1-4.1c0.1-0.1,0.1-0.1,0.2-0.2c0.1-0.1,0.3-0.3,0.4-0.4c1.2-1.2,2.4-2.4,3.5-3.5c0.1-0.1,0.2-0.3,0.2-0.5
		c0-0.1-0.3-0.2-0.4-0.2c-1.6,0-3.2,0-4.8,0c-0.2,0-0.4,0.1-0.5,0.2c-0.6,0.5-1.1,1.1-1.6,1.6c-0.8,0.8-1.6,1.6-2.4,2.4
		c-0.1,0.1-0.2,0.3-0.2,0.5c0,0.9,0,1.8,0,2.7c0,0.6,0,1.1,0,1.7c0,0.3-0.1,0.4-0.2,0.6c-1.2,1.2-2.4,2.3-3.5,3.5
		c-0.1,0.1-0.2,0.2-0.3,0.3l-1,1c-2-2-4-4-6-6c-0.1,0-0.1-0.1-0.2-0.2c0.9-1.1,1.9-1.8,3.3-1.9c1.1-0.2,2.1,0,3,0.6
		c0.2,0.1,0.4,0.1,0.6-0.1c0.4-0.4,0.9-0.9,1.3-1.3c0.4-0.4,0.7-0.7,1.1-1.1c0.3-0.3,0.4-0.4,0-0.8c-2-1.9-4.3-3.2-7.1-3.6
		c-1.4-0.2-2.8-0.3-4.2-0.2c-2.9,0.3-5.6,1.6-7.9,3.8c-0.2,0.2-0.3,0.4-0.2,0.7c0.3,1.1,0.1,2.1-0.7,2.9c-0.8,0.8-1.8,1-2.9,0.7
		c-0.3-0.1-0.5,0-0.7,0.2c-1,1-2.1,2.1-3.1,3.1c-0.3,0.3-0.3,0.4,0,0.7c2.2,2.2,4.3,4.3,6.5,6.5c0.3,0.3,0.4,0.3,0.7,0
		c1.1-1.1,2.1-2.1,3.2-3.2c0.2-0.2,0.2-0.4,0.1-0.6c-0.6-1.9,0.8-3.9,2.8-3.8c0.2,0,0.4,0.1,0.6,0.2c2.2,2.2,4.4,4.4,6.6,6.6l-1,1
		c0,0.1-0.1,0.1-0.1,0.1c-0.8,0.8-1.5,1.5-2.3,2.3h-19.5c-0.2-1.3-0.3-2.7-0.3-4c0-1.9,0.2-3.7,0.6-5.4c0.2-0.8,0.4-1.6,0.6-2.4
		c1.1-3.5,3-6.7,5.4-9.4c0.6-0.6,1.2-1.2,1.8-1.8c0.8-0.7,1.6-1.4,2.5-2c2.1-1.5,4.4-2.7,6.9-3.5c0.2-0.1,0.4-0.1,0.6-0.2
		c0.6-0.2,1.2-0.3,1.8-0.5c1.8-0.4,3.6-0.6,5.4-0.6c1.9,0,3.7,0.2,5.4,0.6c0.8,0.2,1.6,0.4,2.4,0.7c3.5,1.1,6.7,3,9.4,5.4
		c0.6,0.5,1.2,1.1,1.8,1.8c2.4,2.7,4.3,5.9,5.4,9.4c0.3,0.8,0.5,1.6,0.7,2.4c0.1,0.6,0.2,1.1,0.3,1.7c0.2,1.2,0.3,2.5,0.3,3.7
		c0,1.1-0.1,2.2-0.2,3.3c0,0.3-0.1,0.5-0.1,0.8h-16c-0.9-0.9-1.7-1.7-2.6-2.6l1.1-1c0.1-0.1,0.2-0.1,0.2-0.2
		c0.9-0.9,1.8-1.8,2.7-2.6c0.1-0.1,0.3-0.2,0.4-0.2c1.5,0,3,0,4.5,0c0.2,0,0.4-0.1,0.6-0.2c0.1-0.1,0.1-0.1,0.2-0.2
		c1.3-1.3,2.5-2.5,3.8-3.8c0.1-0.1,0.2-0.3,0.2-0.5c0,0,0,0,0-0.1c0-1.6,0-3.2,0-4.8C851.3,841.2,851.2,841,851.1,840.9z
		 M802.6,818.4c7.7-6.2,17.5-9.9,28.1-9.9c24.9,0,45.1,20.2,45.1,45.1c0,0.4,0,0.7,0,1c0,1-0.1,2-0.2,3H871v-9.5h-7.7
		c-0.4-2.1-0.9-4.1-1.6-6.1l6.7-3.8l-5.4-9.4l-6.7,3.9c-1.3-1.6-2.8-3.1-4.5-4.5l3.9-6.7l-9.4-5.4l-3.9,6.7c-2-0.7-4-1.3-6.1-1.6
		v-7.7h-10.9v7.7c-2.1,0.4-4.1,0.9-6.1,1.6l-3.8-6.7l-8,4.6l-1.5,0.9l3.9,6.7c-0.4,0.3-0.7,0.6-1.1,0.9c-1.2,1.1-2.4,2.3-3.4,3.5
		l-6.7-3.9l-5.4,9.4l6.7,3.8c-0.7,2-1.3,4-1.6,6.1h-7.7v9.5h-4.7c-0.1-1-0.2-2-0.2-3c0-0.3,0-0.7,0-1c0-11.4,4.3-21.8,11.3-29.8
		C798.7,821.9,800.6,820,802.6,818.4z"/>
	<g>
		<path class="st0" d="M954.4,1034.4V799.8h52.3v187.9h100v46.6H954.4z"/>
		<path class="st0" d="M1370.7,799.8h52.3v96.3l88.6-96.3h64.7l-93.3,103.7c8,11.2,22.9,32,44.6,62.6c21.7,30.5,37.9,53.3,48.7,68.2
			h-61.1l-68.8-92.6L1423,968v66.4h-52.3V799.8z"/>
		<path class="st0" d="M1771.9,799.8h52.3v234.5h-52.3l-111.7-146.9v146.9h-52.3V799.8h49l115.1,151V799.8z"/>
		<path class="st1" d="M1305.8,820.8c16.5,14,24.7,35.4,24.7,64.4c0,29-8.4,50.2-25.4,63.6c-16.9,13.4-42.6,20.1-77.3,20.1h-31.2
			v65.4h-52.3V799.8h82.9C1263.2,799.8,1289.4,806.8,1305.8,820.8z M1267.4,913.1c6.3-7.1,9.4-17.3,9.4-30.9
			c0-13.5-4.1-23.2-12.3-28.9c-8.2-5.7-20.8-8.6-38.1-8.6h-29.9v78.9h35.2C1249.3,923.7,1261.2,920.1,1267.4,913.1z"/>
	</g>
</g>
</svg>
